<mxfile host="app.diagrams.net" modified="2020-04-19T09:42:01.042Z" agent="5.0 (Windows NT 10.0; Win64; x64) AppleWebKit/537.36 (KHTML, like Gecko) Chrome/81.0.4044.113 Safari/537.36" etag="yJBwN1rNQcTPYhJrGNLA" version="12.9.14" type="github">
  <diagram id="MgJRm-kDrO8C92N0GdhZ" name="Page-1">
    <mxGraphModel dx="4174" dy="2526" grid="1" gridSize="10" guides="1" tooltips="1" connect="1" arrows="1" fold="1" page="1" pageScale="1" pageWidth="850" pageHeight="1100" math="0" shadow="0">
      <root>
        <mxCell id="0" />
        <mxCell id="1" parent="0" />
        <mxCell id="pb54UgJfq_pVLCQnKdrt-29" style="edgeStyle=none;rounded=0;orthogonalLoop=1;jettySize=auto;html=1;exitX=1;exitY=0.5;exitDx=0;exitDy=0;entryX=0;entryY=1;entryDx=0;entryDy=0;endArrow=none;endFill=0;shape=link;" parent="1" source="pb54UgJfq_pVLCQnKdrt-1" target="pb54UgJfq_pVLCQnKdrt-27" edge="1">
          <mxGeometry relative="1" as="geometry" />
        </mxCell>
        <mxCell id="leQP6QBzpdMSjfdProFi-1" style="edgeStyle=none;rounded=0;orthogonalLoop=1;jettySize=auto;html=1;exitX=1;exitY=0.5;exitDx=0;exitDy=0;entryX=0;entryY=0;entryDx=0;entryDy=0;endArrow=none;endFill=0;shape=link;" parent="1" source="pb54UgJfq_pVLCQnKdrt-1" target="pb54UgJfq_pVLCQnKdrt-32" edge="1">
          <mxGeometry relative="1" as="geometry" />
        </mxCell>
        <mxCell id="isqemZ8E7xfHTn4rIfgv-81" style="edgeStyle=none;rounded=0;orthogonalLoop=1;jettySize=auto;html=1;exitX=1;exitY=0.5;exitDx=0;exitDy=0;entryX=0;entryY=0.5;entryDx=0;entryDy=0;endArrow=none;endFill=0;" edge="1" parent="1" source="pb54UgJfq_pVLCQnKdrt-1" target="isqemZ8E7xfHTn4rIfgv-80">
          <mxGeometry relative="1" as="geometry" />
        </mxCell>
        <mxCell id="pb54UgJfq_pVLCQnKdrt-1" value="&lt;font style=&quot;font-size: 24px&quot;&gt;Provinces&lt;/font&gt;" style="rounded=0;whiteSpace=wrap;html=1;" parent="1" vertex="1">
          <mxGeometry x="-60" y="290" width="140" height="60" as="geometry" />
        </mxCell>
        <mxCell id="pb54UgJfq_pVLCQnKdrt-28" style="edgeStyle=none;rounded=0;orthogonalLoop=1;jettySize=auto;html=1;exitX=1;exitY=0.5;exitDx=0;exitDy=0;entryX=0;entryY=0;entryDx=0;entryDy=0;endArrow=none;endFill=0;shape=link;" parent="1" source="pb54UgJfq_pVLCQnKdrt-2" target="pb54UgJfq_pVLCQnKdrt-27" edge="1">
          <mxGeometry relative="1" as="geometry" />
        </mxCell>
        <mxCell id="pb54UgJfq_pVLCQnKdrt-30" value="&lt;font style=&quot;font-size: 24px&quot;&gt;1&lt;/font&gt;" style="edgeLabel;html=1;align=center;verticalAlign=middle;resizable=0;points=[];" parent="pb54UgJfq_pVLCQnKdrt-28" vertex="1" connectable="0">
          <mxGeometry x="-0.1581" y="4" relative="1" as="geometry">
            <mxPoint x="-27.630000000000003" y="22.23" as="offset" />
          </mxGeometry>
        </mxCell>
        <mxCell id="isqemZ8E7xfHTn4rIfgv-88" style="edgeStyle=none;rounded=0;orthogonalLoop=1;jettySize=auto;html=1;exitX=1;exitY=0.5;exitDx=0;exitDy=0;entryX=0;entryY=0.5;entryDx=0;entryDy=0;endArrow=none;endFill=0;" edge="1" parent="1" source="pb54UgJfq_pVLCQnKdrt-2" target="isqemZ8E7xfHTn4rIfgv-87">
          <mxGeometry relative="1" as="geometry" />
        </mxCell>
        <mxCell id="pb54UgJfq_pVLCQnKdrt-2" value="&lt;font style=&quot;font-size: 24px&quot;&gt;Regions&lt;/font&gt;" style="rounded=0;whiteSpace=wrap;html=1;" parent="1" vertex="1">
          <mxGeometry x="-30" y="90" width="120" height="60" as="geometry" />
        </mxCell>
        <mxCell id="leQP6QBzpdMSjfdProFi-2" style="edgeStyle=none;rounded=0;orthogonalLoop=1;jettySize=auto;html=1;exitX=1;exitY=0.5;exitDx=0;exitDy=0;entryX=0;entryY=1;entryDx=0;entryDy=0;endArrow=none;endFill=0;shape=link;" parent="1" source="pb54UgJfq_pVLCQnKdrt-3" target="pb54UgJfq_pVLCQnKdrt-32" edge="1">
          <mxGeometry relative="1" as="geometry" />
        </mxCell>
        <mxCell id="leQP6QBzpdMSjfdProFi-8" style="edgeStyle=none;shape=link;rounded=0;orthogonalLoop=1;jettySize=auto;html=1;exitX=1;exitY=0.5;exitDx=0;exitDy=0;entryX=0;entryY=0;entryDx=0;entryDy=0;endArrow=none;endFill=0;" parent="1" source="pb54UgJfq_pVLCQnKdrt-3" target="leQP6QBzpdMSjfdProFi-7" edge="1">
          <mxGeometry relative="1" as="geometry" />
        </mxCell>
        <mxCell id="isqemZ8E7xfHTn4rIfgv-76" style="edgeStyle=none;rounded=0;orthogonalLoop=1;jettySize=auto;html=1;exitX=1;exitY=0.5;exitDx=0;exitDy=0;entryX=0;entryY=0.5;entryDx=0;entryDy=0;endArrow=none;endFill=0;" edge="1" parent="1" source="pb54UgJfq_pVLCQnKdrt-3" target="isqemZ8E7xfHTn4rIfgv-75">
          <mxGeometry relative="1" as="geometry" />
        </mxCell>
        <mxCell id="pb54UgJfq_pVLCQnKdrt-3" value="&lt;font style=&quot;font-size: 24px&quot;&gt;Districts&lt;/font&gt;" style="rounded=0;whiteSpace=wrap;html=1;" parent="1" vertex="1">
          <mxGeometry x="-60" y="500" width="140" height="60" as="geometry" />
        </mxCell>
        <mxCell id="leQP6QBzpdMSjfdProFi-9" style="edgeStyle=none;shape=link;rounded=0;orthogonalLoop=1;jettySize=auto;html=1;exitX=1;exitY=0.5;exitDx=0;exitDy=0;entryX=0;entryY=1;entryDx=0;entryDy=0;endArrow=none;endFill=0;" parent="1" source="pb54UgJfq_pVLCQnKdrt-4" target="leQP6QBzpdMSjfdProFi-7" edge="1">
          <mxGeometry relative="1" as="geometry" />
        </mxCell>
        <mxCell id="leQP6QBzpdMSjfdProFi-15" style="edgeStyle=none;rounded=0;orthogonalLoop=1;jettySize=auto;html=1;exitX=1;exitY=0.5;exitDx=0;exitDy=0;entryX=0;entryY=0;entryDx=0;entryDy=0;endArrow=none;endFill=0;shape=link;" parent="1" source="pb54UgJfq_pVLCQnKdrt-4" target="leQP6QBzpdMSjfdProFi-14" edge="1">
          <mxGeometry relative="1" as="geometry" />
        </mxCell>
        <mxCell id="isqemZ8E7xfHTn4rIfgv-70" style="edgeStyle=none;rounded=0;orthogonalLoop=1;jettySize=auto;html=1;exitX=1;exitY=0.5;exitDx=0;exitDy=0;entryX=0;entryY=0.5;entryDx=0;entryDy=0;endArrow=none;endFill=0;" edge="1" parent="1" source="pb54UgJfq_pVLCQnKdrt-4" target="isqemZ8E7xfHTn4rIfgv-69">
          <mxGeometry relative="1" as="geometry" />
        </mxCell>
        <mxCell id="pb54UgJfq_pVLCQnKdrt-4" value="&lt;font style=&quot;font-size: 24px&quot;&gt;Sub-districts&lt;/font&gt;" style="rounded=0;whiteSpace=wrap;html=1;" parent="1" vertex="1">
          <mxGeometry x="-70" y="720" width="160" height="60" as="geometry" />
        </mxCell>
        <mxCell id="leQP6QBzpdMSjfdProFi-16" style="edgeStyle=none;rounded=0;orthogonalLoop=1;jettySize=auto;html=1;exitX=1;exitY=0.5;exitDx=0;exitDy=0;entryX=0;entryY=1;entryDx=0;entryDy=0;endArrow=none;endFill=0;shape=link;" parent="1" source="pb54UgJfq_pVLCQnKdrt-5" target="leQP6QBzpdMSjfdProFi-14" edge="1">
          <mxGeometry relative="1" as="geometry" />
        </mxCell>
        <mxCell id="isqemZ8E7xfHTn4rIfgv-2" style="rounded=0;orthogonalLoop=1;jettySize=auto;html=1;exitX=0.5;exitY=0;exitDx=0;exitDy=0;entryX=0.5;entryY=1;entryDx=0;entryDy=0;endArrow=none;endFill=0;" edge="1" parent="1" source="isqemZ8E7xfHTn4rIfgv-27" target="isqemZ8E7xfHTn4rIfgv-1">
          <mxGeometry relative="1" as="geometry">
            <mxPoint x="289.99999999999955" y="1070" as="sourcePoint" />
          </mxGeometry>
        </mxCell>
        <mxCell id="isqemZ8E7xfHTn4rIfgv-5" value="&lt;font style=&quot;font-size: 18px&quot;&gt;1&lt;/font&gt;" style="edgeLabel;html=1;align=center;verticalAlign=middle;resizable=0;points=[];" vertex="1" connectable="0" parent="isqemZ8E7xfHTn4rIfgv-2">
          <mxGeometry x="0.252" y="2" relative="1" as="geometry">
            <mxPoint x="-4.12" y="-18" as="offset" />
          </mxGeometry>
        </mxCell>
        <mxCell id="isqemZ8E7xfHTn4rIfgv-30" style="edgeStyle=none;rounded=0;orthogonalLoop=1;jettySize=auto;html=1;exitX=1;exitY=0.5;exitDx=0;exitDy=0;entryX=0;entryY=0;entryDx=0;entryDy=0;endArrow=none;endFill=0;" edge="1" parent="1" source="pb54UgJfq_pVLCQnKdrt-5" target="isqemZ8E7xfHTn4rIfgv-29">
          <mxGeometry relative="1" as="geometry" />
        </mxCell>
        <mxCell id="isqemZ8E7xfHTn4rIfgv-32" value="&lt;font style=&quot;font-size: 18px&quot;&gt;1&lt;/font&gt;" style="edgeLabel;html=1;align=center;verticalAlign=middle;resizable=0;points=[];" vertex="1" connectable="0" parent="isqemZ8E7xfHTn4rIfgv-30">
          <mxGeometry x="-0.3913" y="-5" relative="1" as="geometry">
            <mxPoint x="31.88" as="offset" />
          </mxGeometry>
        </mxCell>
        <mxCell id="pb54UgJfq_pVLCQnKdrt-5" value="&lt;span style=&quot;font-size: 24px&quot;&gt;Hospitals&lt;/span&gt;" style="rounded=0;whiteSpace=wrap;html=1;" parent="1" vertex="1">
          <mxGeometry x="-70" y="920" width="160" height="60" as="geometry" />
        </mxCell>
        <mxCell id="isqemZ8E7xfHTn4rIfgv-38" style="edgeStyle=none;rounded=0;orthogonalLoop=1;jettySize=auto;html=1;exitX=1;exitY=0.5;exitDx=0;exitDy=0;entryX=0;entryY=0;entryDx=0;entryDy=0;endArrow=none;endFill=0;" edge="1" parent="1" source="pb54UgJfq_pVLCQnKdrt-6" target="isqemZ8E7xfHTn4rIfgv-37">
          <mxGeometry relative="1" as="geometry" />
        </mxCell>
        <mxCell id="pb54UgJfq_pVLCQnKdrt-6" value="&lt;span style=&quot;font-size: 24px&quot;&gt;Departments&lt;/span&gt;" style="rounded=0;whiteSpace=wrap;html=1;" parent="1" vertex="1">
          <mxGeometry x="-70" y="1110" width="160" height="60" as="geometry" />
        </mxCell>
        <mxCell id="pb54UgJfq_pVLCQnKdrt-9" style="rounded=0;orthogonalLoop=1;jettySize=auto;html=1;exitX=1;exitY=1;exitDx=0;exitDy=0;entryX=0;entryY=0.25;entryDx=0;entryDy=0;endArrow=none;endFill=0;" parent="1" source="pb54UgJfq_pVLCQnKdrt-7" target="pb54UgJfq_pVLCQnKdrt-2" edge="1">
          <mxGeometry relative="1" as="geometry" />
        </mxCell>
        <mxCell id="pb54UgJfq_pVLCQnKdrt-7" value="&lt;font style=&quot;font-size: 24px&quot;&gt;&lt;u&gt;id&lt;/u&gt;&lt;/font&gt;" style="ellipse;whiteSpace=wrap;html=1;" parent="1" vertex="1">
          <mxGeometry x="-160" y="40" width="90" height="50" as="geometry" />
        </mxCell>
        <mxCell id="pb54UgJfq_pVLCQnKdrt-12" style="edgeStyle=none;rounded=0;orthogonalLoop=1;jettySize=auto;html=1;exitX=1;exitY=0.5;exitDx=0;exitDy=0;entryX=0;entryY=0.25;entryDx=0;entryDy=0;endArrow=none;endFill=0;" parent="1" source="pb54UgJfq_pVLCQnKdrt-11" target="pb54UgJfq_pVLCQnKdrt-1" edge="1">
          <mxGeometry relative="1" as="geometry" />
        </mxCell>
        <mxCell id="pb54UgJfq_pVLCQnKdrt-11" value="&lt;font style=&quot;font-size: 24px&quot;&gt;&lt;u&gt;id&lt;/u&gt;&lt;/font&gt;" style="ellipse;whiteSpace=wrap;html=1;" parent="1" vertex="1">
          <mxGeometry x="-210" y="260" width="90" height="50" as="geometry" />
        </mxCell>
        <mxCell id="pb54UgJfq_pVLCQnKdrt-15" style="edgeStyle=none;rounded=0;orthogonalLoop=1;jettySize=auto;html=1;exitX=1;exitY=0.5;exitDx=0;exitDy=0;entryX=0;entryY=0.25;entryDx=0;entryDy=0;endArrow=none;endFill=0;" parent="1" source="pb54UgJfq_pVLCQnKdrt-13" target="pb54UgJfq_pVLCQnKdrt-3" edge="1">
          <mxGeometry relative="1" as="geometry" />
        </mxCell>
        <mxCell id="pb54UgJfq_pVLCQnKdrt-13" value="&lt;font style=&quot;font-size: 24px&quot;&gt;&lt;u&gt;id&lt;/u&gt;&lt;/font&gt;" style="ellipse;whiteSpace=wrap;html=1;" parent="1" vertex="1">
          <mxGeometry x="-210" y="470" width="90" height="50" as="geometry" />
        </mxCell>
        <mxCell id="pb54UgJfq_pVLCQnKdrt-18" style="edgeStyle=none;rounded=0;orthogonalLoop=1;jettySize=auto;html=1;exitX=1;exitY=1;exitDx=0;exitDy=0;entryX=0;entryY=0.5;entryDx=0;entryDy=0;endArrow=none;endFill=0;" parent="1" source="pb54UgJfq_pVLCQnKdrt-16" target="pb54UgJfq_pVLCQnKdrt-4" edge="1">
          <mxGeometry relative="1" as="geometry" />
        </mxCell>
        <mxCell id="pb54UgJfq_pVLCQnKdrt-16" value="&lt;font style=&quot;font-size: 24px&quot;&gt;&lt;u&gt;id&lt;/u&gt;&lt;/font&gt;" style="ellipse;whiteSpace=wrap;html=1;" parent="1" vertex="1">
          <mxGeometry x="-220" y="710" width="90" height="50" as="geometry" />
        </mxCell>
        <mxCell id="pb54UgJfq_pVLCQnKdrt-20" style="edgeStyle=none;rounded=0;orthogonalLoop=1;jettySize=auto;html=1;exitX=1;exitY=1;exitDx=0;exitDy=0;entryX=0;entryY=0.5;entryDx=0;entryDy=0;endArrow=none;endFill=0;" parent="1" source="pb54UgJfq_pVLCQnKdrt-19" target="pb54UgJfq_pVLCQnKdrt-5" edge="1">
          <mxGeometry relative="1" as="geometry" />
        </mxCell>
        <mxCell id="pb54UgJfq_pVLCQnKdrt-19" value="&lt;font style=&quot;font-size: 24px&quot;&gt;&lt;u&gt;id&lt;/u&gt;&lt;/font&gt;" style="ellipse;whiteSpace=wrap;html=1;" parent="1" vertex="1">
          <mxGeometry x="-240" y="880" width="90" height="50" as="geometry" />
        </mxCell>
        <mxCell id="pb54UgJfq_pVLCQnKdrt-22" style="edgeStyle=none;rounded=0;orthogonalLoop=1;jettySize=auto;html=1;exitX=1;exitY=1;exitDx=0;exitDy=0;entryX=0.25;entryY=1;entryDx=0;entryDy=0;endArrow=none;endFill=0;" parent="1" source="pb54UgJfq_pVLCQnKdrt-21" target="pb54UgJfq_pVLCQnKdrt-6" edge="1">
          <mxGeometry relative="1" as="geometry" />
        </mxCell>
        <mxCell id="pb54UgJfq_pVLCQnKdrt-21" value="&lt;font style=&quot;font-size: 24px&quot;&gt;&lt;u&gt;id&lt;/u&gt;&lt;/font&gt;" style="ellipse;whiteSpace=wrap;html=1;" parent="1" vertex="1">
          <mxGeometry x="-210" y="1230" width="90" height="50" as="geometry" />
        </mxCell>
        <mxCell id="pb54UgJfq_pVLCQnKdrt-24" style="edgeStyle=none;rounded=0;orthogonalLoop=1;jettySize=auto;html=1;exitX=0.5;exitY=1;exitDx=0;exitDy=0;entryX=0.5;entryY=0;entryDx=0;entryDy=0;endArrow=none;endFill=0;" parent="1" source="pb54UgJfq_pVLCQnKdrt-23" target="pb54UgJfq_pVLCQnKdrt-2" edge="1">
          <mxGeometry relative="1" as="geometry" />
        </mxCell>
        <mxCell id="pb54UgJfq_pVLCQnKdrt-23" value="&lt;font style=&quot;font-size: 24px&quot;&gt;region&lt;/font&gt;" style="ellipse;whiteSpace=wrap;html=1;" parent="1" vertex="1">
          <mxGeometry x="-25" y="-30" width="110" height="50" as="geometry" />
        </mxCell>
        <mxCell id="pb54UgJfq_pVLCQnKdrt-26" style="edgeStyle=none;rounded=0;orthogonalLoop=1;jettySize=auto;html=1;exitX=0.5;exitY=1;exitDx=0;exitDy=0;entryX=0.5;entryY=0;entryDx=0;entryDy=0;endArrow=none;endFill=0;" parent="1" source="pb54UgJfq_pVLCQnKdrt-25" target="pb54UgJfq_pVLCQnKdrt-1" edge="1">
          <mxGeometry relative="1" as="geometry" />
        </mxCell>
        <mxCell id="pb54UgJfq_pVLCQnKdrt-25" value="&lt;font style=&quot;font-size: 24px&quot;&gt;province&lt;/font&gt;" style="ellipse;whiteSpace=wrap;html=1;" parent="1" vertex="1">
          <mxGeometry x="-45" y="190" width="110" height="50" as="geometry" />
        </mxCell>
        <mxCell id="pb54UgJfq_pVLCQnKdrt-27" value="&lt;font style=&quot;font-size: 24px&quot;&gt;RegionProvince&lt;/font&gt;" style="rhombus;whiteSpace=wrap;html=1;" parent="1" vertex="1">
          <mxGeometry x="180" y="175" width="270" height="80" as="geometry" />
        </mxCell>
        <mxCell id="pb54UgJfq_pVLCQnKdrt-31" value="&lt;font style=&quot;font-size: 24px&quot;&gt;N&lt;/font&gt;" style="edgeLabel;html=1;align=center;verticalAlign=middle;resizable=0;points=[];" parent="1" vertex="1" connectable="0">
          <mxGeometry x="109.998552195716" y="280.00370929334554" as="geometry">
            <mxPoint x="4.369999999999999" y="-1.7699999999999996" as="offset" />
          </mxGeometry>
        </mxCell>
        <mxCell id="pb54UgJfq_pVLCQnKdrt-32" value="&lt;font style=&quot;font-size: 24px&quot;&gt;Province&lt;/font&gt;&lt;span style=&quot;font-size: 24px&quot;&gt;District&lt;/span&gt;" style="rhombus;whiteSpace=wrap;html=1;" parent="1" vertex="1">
          <mxGeometry x="180" y="390" width="270" height="80" as="geometry" />
        </mxCell>
        <mxCell id="pb54UgJfq_pVLCQnKdrt-34" style="edgeStyle=none;rounded=0;orthogonalLoop=1;jettySize=auto;html=1;exitX=0.5;exitY=1;exitDx=0;exitDy=0;entryX=0.5;entryY=0;entryDx=0;entryDy=0;endArrow=none;endFill=0;" parent="1" source="pb54UgJfq_pVLCQnKdrt-33" target="pb54UgJfq_pVLCQnKdrt-3" edge="1">
          <mxGeometry relative="1" as="geometry" />
        </mxCell>
        <mxCell id="pb54UgJfq_pVLCQnKdrt-33" value="&lt;span style=&quot;font-size: 24px&quot;&gt;district&lt;/span&gt;" style="ellipse;whiteSpace=wrap;html=1;" parent="1" vertex="1">
          <mxGeometry x="-45" y="390" width="110" height="50" as="geometry" />
        </mxCell>
        <mxCell id="leQP6QBzpdMSjfdProFi-5" value="&lt;font style=&quot;font-size: 24px&quot;&gt;1&lt;/font&gt;" style="edgeLabel;html=1;align=center;verticalAlign=middle;resizable=0;points=[];" parent="1" vertex="1" connectable="0">
          <mxGeometry x="159.998552195716" y="360.00370929334554" as="geometry">
            <mxPoint x="-27.630000000000003" y="22.23" as="offset" />
          </mxGeometry>
        </mxCell>
        <mxCell id="leQP6QBzpdMSjfdProFi-6" value="&lt;font style=&quot;font-size: 24px&quot;&gt;N&lt;/font&gt;" style="edgeLabel;html=1;align=center;verticalAlign=middle;resizable=0;points=[];" parent="1" vertex="1" connectable="0">
          <mxGeometry x="129.998552195716" y="480.00370929334554" as="geometry">
            <mxPoint x="4.369999999999999" y="-1.7699999999999996" as="offset" />
          </mxGeometry>
        </mxCell>
        <mxCell id="leQP6QBzpdMSjfdProFi-7" value="&lt;span style=&quot;font-size: 24px&quot;&gt;DistrictSubDistrict&lt;/span&gt;" style="rhombus;whiteSpace=wrap;html=1;" parent="1" vertex="1">
          <mxGeometry x="180" y="620" width="270" height="80" as="geometry" />
        </mxCell>
        <mxCell id="leQP6QBzpdMSjfdProFi-10" value="&lt;font style=&quot;font-size: 24px&quot;&gt;1&lt;/font&gt;" style="edgeLabel;html=1;align=center;verticalAlign=middle;resizable=0;points=[];" parent="1" vertex="1" connectable="0">
          <mxGeometry x="169.998552195716" y="580.0037092933455" as="geometry">
            <mxPoint x="-27.630000000000003" y="22.23" as="offset" />
          </mxGeometry>
        </mxCell>
        <mxCell id="leQP6QBzpdMSjfdProFi-11" value="&lt;font style=&quot;font-size: 24px&quot;&gt;N&lt;/font&gt;" style="edgeLabel;html=1;align=center;verticalAlign=middle;resizable=0;points=[];" parent="1" vertex="1" connectable="0">
          <mxGeometry x="139.998552195716" y="710.0037092933455" as="geometry">
            <mxPoint x="4.369999999999999" y="-1.7699999999999996" as="offset" />
          </mxGeometry>
        </mxCell>
        <mxCell id="leQP6QBzpdMSjfdProFi-13" style="edgeStyle=none;rounded=0;orthogonalLoop=1;jettySize=auto;html=1;exitX=0.5;exitY=1;exitDx=0;exitDy=0;entryX=0.5;entryY=0;entryDx=0;entryDy=0;endArrow=none;endFill=0;" parent="1" source="leQP6QBzpdMSjfdProFi-12" target="pb54UgJfq_pVLCQnKdrt-4" edge="1">
          <mxGeometry relative="1" as="geometry" />
        </mxCell>
        <mxCell id="leQP6QBzpdMSjfdProFi-12" value="&lt;span style=&quot;font-size: 24px&quot;&gt;subDistrict&lt;/span&gt;" style="ellipse;whiteSpace=wrap;html=1;" parent="1" vertex="1">
          <mxGeometry x="-62.5" y="620" width="145" height="50" as="geometry" />
        </mxCell>
        <mxCell id="leQP6QBzpdMSjfdProFi-14" value="&lt;span style=&quot;font-size: 24px&quot;&gt;SubDisHospital&lt;/span&gt;" style="rhombus;whiteSpace=wrap;html=1;" parent="1" vertex="1">
          <mxGeometry x="190" y="800" width="270" height="80" as="geometry" />
        </mxCell>
        <mxCell id="leQP6QBzpdMSjfdProFi-18" value="&lt;font style=&quot;font-size: 24px&quot;&gt;1&lt;/font&gt;" style="edgeLabel;html=1;align=center;verticalAlign=middle;resizable=0;points=[];" parent="1" vertex="1" connectable="0">
          <mxGeometry x="169.998552195716" y="790.0037092933455" as="geometry">
            <mxPoint x="-27.630000000000003" y="22.23" as="offset" />
          </mxGeometry>
        </mxCell>
        <mxCell id="leQP6QBzpdMSjfdProFi-19" value="&lt;font style=&quot;font-size: 24px&quot;&gt;N&lt;/font&gt;" style="edgeLabel;html=1;align=center;verticalAlign=middle;resizable=0;points=[];" parent="1" vertex="1" connectable="0">
          <mxGeometry x="149.998552195716" y="720.0037092933455" as="geometry">
            <mxPoint x="-1.6300000000000008" y="173.23" as="offset" />
          </mxGeometry>
        </mxCell>
        <mxCell id="leQP6QBzpdMSjfdProFi-28" style="edgeStyle=none;rounded=0;orthogonalLoop=1;jettySize=auto;html=1;exitX=0.5;exitY=1;exitDx=0;exitDy=0;entryX=0.5;entryY=0;entryDx=0;entryDy=0;endArrow=none;endFill=0;" parent="1" source="leQP6QBzpdMSjfdProFi-25" target="pb54UgJfq_pVLCQnKdrt-5" edge="1">
          <mxGeometry relative="1" as="geometry" />
        </mxCell>
        <mxCell id="leQP6QBzpdMSjfdProFi-25" value="&lt;span style=&quot;font-size: 24px&quot;&gt;hospital&lt;/span&gt;" style="ellipse;whiteSpace=wrap;html=1;" parent="1" vertex="1">
          <mxGeometry x="-62.5" y="810" width="145" height="50" as="geometry" />
        </mxCell>
        <mxCell id="leQP6QBzpdMSjfdProFi-30" style="edgeStyle=none;rounded=0;orthogonalLoop=1;jettySize=auto;html=1;exitX=0.5;exitY=1;exitDx=0;exitDy=0;entryX=0.5;entryY=0;entryDx=0;entryDy=0;endArrow=none;endFill=0;" parent="1" source="leQP6QBzpdMSjfdProFi-29" target="pb54UgJfq_pVLCQnKdrt-6" edge="1">
          <mxGeometry relative="1" as="geometry" />
        </mxCell>
        <mxCell id="leQP6QBzpdMSjfdProFi-29" value="&lt;span style=&quot;font-size: 24px&quot;&gt;department&lt;/span&gt;" style="ellipse;whiteSpace=wrap;html=1;" parent="1" vertex="1">
          <mxGeometry x="-62.5" y="1010" width="145" height="50" as="geometry" />
        </mxCell>
        <mxCell id="isqemZ8E7xfHTn4rIfgv-4" style="edgeStyle=none;rounded=0;orthogonalLoop=1;jettySize=auto;html=1;exitX=0.5;exitY=0;exitDx=0;exitDy=0;entryX=0;entryY=0.5;entryDx=0;entryDy=0;endArrow=none;endFill=0;" edge="1" parent="1" source="isqemZ8E7xfHTn4rIfgv-1" target="isqemZ8E7xfHTn4rIfgv-3">
          <mxGeometry relative="1" as="geometry" />
        </mxCell>
        <mxCell id="isqemZ8E7xfHTn4rIfgv-6" value="&lt;font style=&quot;font-size: 18px&quot;&gt;1&lt;/font&gt;" style="edgeLabel;html=1;align=center;verticalAlign=middle;resizable=0;points=[];" vertex="1" connectable="0" parent="isqemZ8E7xfHTn4rIfgv-4">
          <mxGeometry x="0.2498" y="4" relative="1" as="geometry">
            <mxPoint x="-19.12" y="-16" as="offset" />
          </mxGeometry>
        </mxCell>
        <mxCell id="isqemZ8E7xfHTn4rIfgv-1" value="&lt;font style=&quot;font-size: 24px&quot;&gt;create&lt;/font&gt;" style="rhombus;whiteSpace=wrap;html=1;" vertex="1" parent="1">
          <mxGeometry x="555" y="1050" width="205" height="80" as="geometry" />
        </mxCell>
        <mxCell id="isqemZ8E7xfHTn4rIfgv-13" style="edgeStyle=none;rounded=0;orthogonalLoop=1;jettySize=auto;html=1;exitX=0.5;exitY=1;exitDx=0;exitDy=0;entryX=0.5;entryY=0;entryDx=0;entryDy=0;endArrow=none;endFill=0;" edge="1" parent="1" source="isqemZ8E7xfHTn4rIfgv-3" target="isqemZ8E7xfHTn4rIfgv-12">
          <mxGeometry relative="1" as="geometry" />
        </mxCell>
        <mxCell id="isqemZ8E7xfHTn4rIfgv-15" style="edgeStyle=none;rounded=0;orthogonalLoop=1;jettySize=auto;html=1;exitX=0.75;exitY=1;exitDx=0;exitDy=0;entryX=0.5;entryY=0;entryDx=0;entryDy=0;endArrow=none;endFill=0;" edge="1" parent="1" source="isqemZ8E7xfHTn4rIfgv-3" target="isqemZ8E7xfHTn4rIfgv-14">
          <mxGeometry relative="1" as="geometry" />
        </mxCell>
        <mxCell id="isqemZ8E7xfHTn4rIfgv-53" style="edgeStyle=none;rounded=0;orthogonalLoop=1;jettySize=auto;html=1;exitX=1;exitY=0.5;exitDx=0;exitDy=0;entryX=0;entryY=0.5;entryDx=0;entryDy=0;endArrow=none;endFill=0;" edge="1" parent="1" source="isqemZ8E7xfHTn4rIfgv-3" target="isqemZ8E7xfHTn4rIfgv-52">
          <mxGeometry relative="1" as="geometry" />
        </mxCell>
        <mxCell id="isqemZ8E7xfHTn4rIfgv-124" value="&lt;font style=&quot;font-size: 18px&quot;&gt;N&lt;/font&gt;" style="edgeLabel;html=1;align=center;verticalAlign=middle;resizable=0;points=[];" vertex="1" connectable="0" parent="isqemZ8E7xfHTn4rIfgv-53">
          <mxGeometry x="-0.4" y="6" relative="1" as="geometry">
            <mxPoint as="offset" />
          </mxGeometry>
        </mxCell>
        <mxCell id="isqemZ8E7xfHTn4rIfgv-3" value="&lt;font style=&quot;font-size: 24px&quot;&gt;Request&lt;/font&gt;" style="rounded=0;whiteSpace=wrap;html=1;" vertex="1" parent="1">
          <mxGeometry x="750" y="920" width="160" height="60" as="geometry" />
        </mxCell>
        <mxCell id="isqemZ8E7xfHTn4rIfgv-8" style="edgeStyle=none;rounded=0;orthogonalLoop=1;jettySize=auto;html=1;exitX=1;exitY=1;exitDx=0;exitDy=0;entryX=0.25;entryY=0;entryDx=0;entryDy=0;endArrow=none;endFill=0;" edge="1" parent="1" source="isqemZ8E7xfHTn4rIfgv-7" target="isqemZ8E7xfHTn4rIfgv-3">
          <mxGeometry relative="1" as="geometry" />
        </mxCell>
        <mxCell id="isqemZ8E7xfHTn4rIfgv-7" value="&lt;font style=&quot;font-size: 24px&quot;&gt;&lt;u&gt;id&lt;/u&gt;&lt;/font&gt;" style="ellipse;whiteSpace=wrap;html=1;" vertex="1" parent="1">
          <mxGeometry x="660" y="790" width="90" height="50" as="geometry" />
        </mxCell>
        <mxCell id="isqemZ8E7xfHTn4rIfgv-10" style="edgeStyle=none;rounded=0;orthogonalLoop=1;jettySize=auto;html=1;exitX=0.5;exitY=1;exitDx=0;exitDy=0;entryX=0.75;entryY=0;entryDx=0;entryDy=0;endArrow=none;endFill=0;" edge="1" parent="1" source="isqemZ8E7xfHTn4rIfgv-9" target="isqemZ8E7xfHTn4rIfgv-3">
          <mxGeometry relative="1" as="geometry" />
        </mxCell>
        <mxCell id="isqemZ8E7xfHTn4rIfgv-9" value="&lt;span style=&quot;font-size: 24px&quot;&gt;request_amount&lt;/span&gt;" style="ellipse;whiteSpace=wrap;html=1;" vertex="1" parent="1">
          <mxGeometry x="760" y="730" width="210" height="50" as="geometry" />
        </mxCell>
        <mxCell id="isqemZ8E7xfHTn4rIfgv-12" value="&lt;span style=&quot;font-size: 24px&quot;&gt;reserve_amount&lt;/span&gt;" style="ellipse;whiteSpace=wrap;html=1;" vertex="1" parent="1">
          <mxGeometry x="725" y="1130" width="210" height="50" as="geometry" />
        </mxCell>
        <mxCell id="isqemZ8E7xfHTn4rIfgv-14" value="&lt;span style=&quot;font-size: 24px&quot;&gt;delivered_amount&lt;/span&gt;" style="ellipse;whiteSpace=wrap;html=1;" vertex="1" parent="1">
          <mxGeometry x="910" y="1060" width="210" height="50" as="geometry" />
        </mxCell>
        <mxCell id="isqemZ8E7xfHTn4rIfgv-23" style="edgeStyle=none;rounded=0;orthogonalLoop=1;jettySize=auto;html=1;exitX=1;exitY=1;exitDx=0;exitDy=0;entryX=0;entryY=0;entryDx=0;entryDy=0;endArrow=none;endFill=0;" edge="1" parent="1" source="isqemZ8E7xfHTn4rIfgv-22" target="isqemZ8E7xfHTn4rIfgv-52">
          <mxGeometry relative="1" as="geometry">
            <mxPoint x="1160" y="930" as="targetPoint" />
          </mxGeometry>
        </mxCell>
        <mxCell id="isqemZ8E7xfHTn4rIfgv-22" value="&lt;font style=&quot;font-size: 24px&quot;&gt;&lt;u&gt;id&lt;/u&gt;&lt;/font&gt;" style="ellipse;whiteSpace=wrap;html=1;" vertex="1" parent="1">
          <mxGeometry x="1010" y="825" width="90" height="50" as="geometry" />
        </mxCell>
        <mxCell id="isqemZ8E7xfHTn4rIfgv-43" style="edgeStyle=none;rounded=0;orthogonalLoop=1;jettySize=auto;html=1;exitX=0.5;exitY=1;exitDx=0;exitDy=0;entryX=0.5;entryY=0;entryDx=0;entryDy=0;endArrow=none;endFill=0;" edge="1" parent="1" source="isqemZ8E7xfHTn4rIfgv-27" target="isqemZ8E7xfHTn4rIfgv-42">
          <mxGeometry relative="1" as="geometry" />
        </mxCell>
        <mxCell id="isqemZ8E7xfHTn4rIfgv-45" style="edgeStyle=none;rounded=0;orthogonalLoop=1;jettySize=auto;html=1;exitX=0.75;exitY=1;exitDx=0;exitDy=0;entryX=0.5;entryY=0;entryDx=0;entryDy=0;endArrow=none;endFill=0;" edge="1" parent="1" source="isqemZ8E7xfHTn4rIfgv-27" target="isqemZ8E7xfHTn4rIfgv-44">
          <mxGeometry relative="1" as="geometry" />
        </mxCell>
        <mxCell id="isqemZ8E7xfHTn4rIfgv-27" value="&lt;font style=&quot;font-size: 24px&quot;&gt;MedicalStaff&lt;/font&gt;" style="rounded=0;whiteSpace=wrap;html=1;" vertex="1" parent="1">
          <mxGeometry x="450" y="1250" width="200" height="60" as="geometry" />
        </mxCell>
        <mxCell id="isqemZ8E7xfHTn4rIfgv-31" style="edgeStyle=none;rounded=0;orthogonalLoop=1;jettySize=auto;html=1;exitX=1;exitY=1;exitDx=0;exitDy=0;entryX=0.5;entryY=0;entryDx=0;entryDy=0;endArrow=none;endFill=0;" edge="1" parent="1" source="isqemZ8E7xfHTn4rIfgv-29" target="isqemZ8E7xfHTn4rIfgv-27">
          <mxGeometry relative="1" as="geometry" />
        </mxCell>
        <mxCell id="isqemZ8E7xfHTn4rIfgv-29" value="&lt;span style=&quot;font-size: 24px&quot;&gt;lives_in&lt;/span&gt;" style="rhombus;whiteSpace=wrap;html=1;" vertex="1" parent="1">
          <mxGeometry x="140" y="1000" width="205" height="80" as="geometry" />
        </mxCell>
        <mxCell id="isqemZ8E7xfHTn4rIfgv-33" value="&lt;font style=&quot;font-size: 24px&quot;&gt;N&lt;/font&gt;" style="edgeLabel;html=1;align=center;verticalAlign=middle;resizable=0;points=[];" vertex="1" connectable="0" parent="1">
          <mxGeometry x="359.998552195716" y="890.0037092933455" as="geometry">
            <mxPoint x="-1.6300000000000008" y="173.23" as="offset" />
          </mxGeometry>
        </mxCell>
        <mxCell id="isqemZ8E7xfHTn4rIfgv-35" style="edgeStyle=none;rounded=0;orthogonalLoop=1;jettySize=auto;html=1;exitX=1;exitY=0;exitDx=0;exitDy=0;entryX=0.25;entryY=1;entryDx=0;entryDy=0;endArrow=none;endFill=0;" edge="1" parent="1" source="isqemZ8E7xfHTn4rIfgv-34" target="isqemZ8E7xfHTn4rIfgv-27">
          <mxGeometry relative="1" as="geometry" />
        </mxCell>
        <mxCell id="isqemZ8E7xfHTn4rIfgv-34" value="&lt;font style=&quot;font-size: 24px&quot;&gt;&lt;u&gt;id&lt;/u&gt;&lt;/font&gt;" style="ellipse;whiteSpace=wrap;html=1;" vertex="1" parent="1">
          <mxGeometry x="370" y="1370" width="90" height="50" as="geometry" />
        </mxCell>
        <mxCell id="isqemZ8E7xfHTn4rIfgv-39" style="edgeStyle=none;rounded=0;orthogonalLoop=1;jettySize=auto;html=1;exitX=1;exitY=1;exitDx=0;exitDy=0;entryX=0;entryY=0.5;entryDx=0;entryDy=0;endArrow=none;endFill=0;" edge="1" parent="1" source="isqemZ8E7xfHTn4rIfgv-37" target="isqemZ8E7xfHTn4rIfgv-27">
          <mxGeometry relative="1" as="geometry" />
        </mxCell>
        <mxCell id="isqemZ8E7xfHTn4rIfgv-37" value="&lt;span style=&quot;font-size: 24px&quot;&gt;part_of&lt;/span&gt;" style="rhombus;whiteSpace=wrap;html=1;" vertex="1" parent="1">
          <mxGeometry x="155" y="1160" width="205" height="80" as="geometry" />
        </mxCell>
        <mxCell id="isqemZ8E7xfHTn4rIfgv-40" value="&lt;font style=&quot;font-size: 24px&quot;&gt;1&lt;/font&gt;" style="edgeLabel;html=1;align=center;verticalAlign=middle;resizable=0;points=[];" vertex="1" connectable="0" parent="1">
          <mxGeometry x="199.998552195716" y="1120.0037092933455" as="geometry">
            <mxPoint x="-27.630000000000003" y="22.23" as="offset" />
          </mxGeometry>
        </mxCell>
        <mxCell id="isqemZ8E7xfHTn4rIfgv-41" value="&lt;font style=&quot;font-size: 24px&quot;&gt;N&lt;/font&gt;" style="edgeLabel;html=1;align=center;verticalAlign=middle;resizable=0;points=[];" vertex="1" connectable="0" parent="1">
          <mxGeometry x="369.998552195716" y="1225.0037092933455" as="geometry">
            <mxPoint x="31.369999999999997" y="8.22999999999999" as="offset" />
          </mxGeometry>
        </mxCell>
        <mxCell id="isqemZ8E7xfHTn4rIfgv-42" value="&lt;span style=&quot;font-size: 24px&quot;&gt;name&lt;/span&gt;" style="ellipse;whiteSpace=wrap;html=1;" vertex="1" parent="1">
          <mxGeometry x="490" y="1450" width="120" height="50" as="geometry" />
        </mxCell>
        <mxCell id="isqemZ8E7xfHTn4rIfgv-44" value="&lt;span style=&quot;font-size: 24px&quot;&gt;line_id&lt;/span&gt;" style="ellipse;whiteSpace=wrap;html=1;" vertex="1" parent="1">
          <mxGeometry x="630" y="1380" width="120" height="50" as="geometry" />
        </mxCell>
        <mxCell id="isqemZ8E7xfHTn4rIfgv-47" style="edgeStyle=none;rounded=0;orthogonalLoop=1;jettySize=auto;html=1;exitX=0.5;exitY=1;exitDx=0;exitDy=0;entryX=0.5;entryY=0;entryDx=0;entryDy=0;endArrow=none;endFill=0;" edge="1" parent="1" source="isqemZ8E7xfHTn4rIfgv-46" target="isqemZ8E7xfHTn4rIfgv-52">
          <mxGeometry relative="1" as="geometry">
            <mxPoint x="1200" y="930" as="targetPoint" />
          </mxGeometry>
        </mxCell>
        <mxCell id="isqemZ8E7xfHTn4rIfgv-46" value="&lt;span style=&quot;font-size: 24px&quot;&gt;amount&lt;/span&gt;" style="ellipse;whiteSpace=wrap;html=1;" vertex="1" parent="1">
          <mxGeometry x="1095" y="770" width="210" height="50" as="geometry" />
        </mxCell>
        <mxCell id="isqemZ8E7xfHTn4rIfgv-59" style="edgeStyle=none;rounded=0;orthogonalLoop=1;jettySize=auto;html=1;exitX=0.25;exitY=1;exitDx=0;exitDy=0;entryX=0.5;entryY=0;entryDx=0;entryDy=0;endArrow=none;endFill=0;" edge="1" parent="1" source="isqemZ8E7xfHTn4rIfgv-48" target="isqemZ8E7xfHTn4rIfgv-58">
          <mxGeometry relative="1" as="geometry" />
        </mxCell>
        <mxCell id="isqemZ8E7xfHTn4rIfgv-61" style="edgeStyle=none;rounded=0;orthogonalLoop=1;jettySize=auto;html=1;exitX=0.5;exitY=1;exitDx=0;exitDy=0;entryX=0.5;entryY=0;entryDx=0;entryDy=0;endArrow=none;endFill=0;" edge="1" parent="1" source="isqemZ8E7xfHTn4rIfgv-48" target="isqemZ8E7xfHTn4rIfgv-60">
          <mxGeometry relative="1" as="geometry" />
        </mxCell>
        <mxCell id="isqemZ8E7xfHTn4rIfgv-63" style="edgeStyle=none;rounded=0;orthogonalLoop=1;jettySize=auto;html=1;exitX=1;exitY=1;exitDx=0;exitDy=0;entryX=0.5;entryY=0;entryDx=0;entryDy=0;endArrow=none;endFill=0;" edge="1" parent="1" source="isqemZ8E7xfHTn4rIfgv-48" target="isqemZ8E7xfHTn4rIfgv-62">
          <mxGeometry relative="1" as="geometry" />
        </mxCell>
        <mxCell id="isqemZ8E7xfHTn4rIfgv-65" style="edgeStyle=none;rounded=0;orthogonalLoop=1;jettySize=auto;html=1;exitX=1;exitY=0.5;exitDx=0;exitDy=0;entryX=0;entryY=0.5;entryDx=0;entryDy=0;endArrow=none;endFill=0;" edge="1" parent="1" source="isqemZ8E7xfHTn4rIfgv-48" target="isqemZ8E7xfHTn4rIfgv-64">
          <mxGeometry relative="1" as="geometry" />
        </mxCell>
        <mxCell id="isqemZ8E7xfHTn4rIfgv-67" style="edgeStyle=none;rounded=0;orthogonalLoop=1;jettySize=auto;html=1;exitX=1;exitY=0.25;exitDx=0;exitDy=0;entryX=0;entryY=0.5;entryDx=0;entryDy=0;endArrow=none;endFill=0;" edge="1" parent="1" source="isqemZ8E7xfHTn4rIfgv-48" target="isqemZ8E7xfHTn4rIfgv-66">
          <mxGeometry relative="1" as="geometry" />
        </mxCell>
        <mxCell id="isqemZ8E7xfHTn4rIfgv-96" style="edgeStyle=none;rounded=0;orthogonalLoop=1;jettySize=auto;html=1;exitX=0.75;exitY=0;exitDx=0;exitDy=0;entryX=0;entryY=1;entryDx=0;entryDy=0;endArrow=none;endFill=0;" edge="1" parent="1" source="isqemZ8E7xfHTn4rIfgv-48" target="isqemZ8E7xfHTn4rIfgv-95">
          <mxGeometry relative="1" as="geometry" />
        </mxCell>
        <mxCell id="isqemZ8E7xfHTn4rIfgv-103" style="edgeStyle=none;rounded=0;orthogonalLoop=1;jettySize=auto;html=1;exitX=0.75;exitY=0;exitDx=0;exitDy=0;entryX=0;entryY=1;entryDx=0;entryDy=0;endArrow=none;endFill=0;" edge="1" parent="1" source="isqemZ8E7xfHTn4rIfgv-48" target="isqemZ8E7xfHTn4rIfgv-102">
          <mxGeometry relative="1" as="geometry" />
        </mxCell>
        <mxCell id="isqemZ8E7xfHTn4rIfgv-109" style="edgeStyle=none;rounded=0;orthogonalLoop=1;jettySize=auto;html=1;exitX=1;exitY=0;exitDx=0;exitDy=0;entryX=0;entryY=1;entryDx=0;entryDy=0;endArrow=none;endFill=0;" edge="1" parent="1" source="isqemZ8E7xfHTn4rIfgv-48" target="isqemZ8E7xfHTn4rIfgv-108">
          <mxGeometry relative="1" as="geometry" />
        </mxCell>
        <mxCell id="isqemZ8E7xfHTn4rIfgv-48" value="&lt;font style=&quot;font-size: 24px&quot;&gt;Maker&lt;/font&gt;" style="rounded=0;whiteSpace=wrap;html=1;" vertex="1" parent="1">
          <mxGeometry x="1390" y="920" width="200" height="60" as="geometry" />
        </mxCell>
        <mxCell id="isqemZ8E7xfHTn4rIfgv-50" style="edgeStyle=none;rounded=0;orthogonalLoop=1;jettySize=auto;html=1;exitX=0;exitY=1;exitDx=0;exitDy=0;entryX=1;entryY=0;entryDx=0;entryDy=0;endArrow=none;endFill=0;" edge="1" parent="1" source="isqemZ8E7xfHTn4rIfgv-49" target="isqemZ8E7xfHTn4rIfgv-48">
          <mxGeometry relative="1" as="geometry" />
        </mxCell>
        <mxCell id="isqemZ8E7xfHTn4rIfgv-49" value="&lt;font style=&quot;font-size: 24px&quot;&gt;&lt;u&gt;id&lt;/u&gt;&lt;/font&gt;" style="ellipse;whiteSpace=wrap;html=1;" vertex="1" parent="1">
          <mxGeometry x="1860" y="875" width="90" height="50" as="geometry" />
        </mxCell>
        <mxCell id="isqemZ8E7xfHTn4rIfgv-54" style="edgeStyle=none;rounded=0;orthogonalLoop=1;jettySize=auto;html=1;exitX=1;exitY=0.5;exitDx=0;exitDy=0;endArrow=none;endFill=0;entryX=0;entryY=0.5;entryDx=0;entryDy=0;" edge="1" parent="1" source="isqemZ8E7xfHTn4rIfgv-52" target="isqemZ8E7xfHTn4rIfgv-48">
          <mxGeometry relative="1" as="geometry">
            <mxPoint x="1550" y="940" as="targetPoint" />
          </mxGeometry>
        </mxCell>
        <mxCell id="isqemZ8E7xfHTn4rIfgv-56" style="edgeStyle=none;rounded=0;orthogonalLoop=1;jettySize=auto;html=1;exitX=0.5;exitY=1;exitDx=0;exitDy=0;entryX=0.5;entryY=0;entryDx=0;entryDy=0;endArrow=none;endFill=0;" edge="1" parent="1" source="isqemZ8E7xfHTn4rIfgv-52" target="isqemZ8E7xfHTn4rIfgv-55">
          <mxGeometry relative="1" as="geometry" />
        </mxCell>
        <mxCell id="isqemZ8E7xfHTn4rIfgv-52" value="&lt;font style=&quot;font-size: 24px&quot;&gt;Reserve&lt;/font&gt;" style="rhombus;whiteSpace=wrap;html=1;" vertex="1" parent="1">
          <mxGeometry x="1090" y="910" width="220" height="80" as="geometry" />
        </mxCell>
        <mxCell id="isqemZ8E7xfHTn4rIfgv-55" value="&lt;span style=&quot;font-size: 24px&quot;&gt;Status&lt;/span&gt;" style="ellipse;whiteSpace=wrap;html=1;" vertex="1" parent="1">
          <mxGeometry x="1125" y="1045" width="150" height="50" as="geometry" />
        </mxCell>
        <mxCell id="isqemZ8E7xfHTn4rIfgv-58" value="&lt;span style=&quot;font-size: 24px&quot;&gt;Name&lt;/span&gt;" style="ellipse;whiteSpace=wrap;html=1;" vertex="1" parent="1">
          <mxGeometry x="1320" y="1095" width="150" height="50" as="geometry" />
        </mxCell>
        <mxCell id="isqemZ8E7xfHTn4rIfgv-60" value="&lt;span style=&quot;font-size: 24px&quot;&gt;Surname&lt;/span&gt;" style="ellipse;whiteSpace=wrap;html=1;" vertex="1" parent="1">
          <mxGeometry x="1480" y="1095" width="150" height="50" as="geometry" />
        </mxCell>
        <mxCell id="isqemZ8E7xfHTn4rIfgv-62" value="&lt;span style=&quot;font-size: 24px&quot;&gt;Nick_name&lt;/span&gt;" style="ellipse;whiteSpace=wrap;html=1;" vertex="1" parent="1">
          <mxGeometry x="1630" y="1065" width="150" height="50" as="geometry" />
        </mxCell>
        <mxCell id="isqemZ8E7xfHTn4rIfgv-64" value="&lt;span style=&quot;font-size: 24px&quot;&gt;line_id&lt;/span&gt;" style="ellipse;whiteSpace=wrap;html=1;" vertex="1" parent="1">
          <mxGeometry x="1760" y="1030" width="150" height="50" as="geometry" />
        </mxCell>
        <mxCell id="isqemZ8E7xfHTn4rIfgv-66" value="&lt;span style=&quot;font-size: 24px&quot;&gt;phone_no&lt;/span&gt;" style="ellipse;whiteSpace=wrap;html=1;" vertex="1" parent="1">
          <mxGeometry x="1785" y="955" width="150" height="50" as="geometry" />
        </mxCell>
        <mxCell id="isqemZ8E7xfHTn4rIfgv-71" style="edgeStyle=none;rounded=0;orthogonalLoop=1;jettySize=auto;html=1;exitX=1;exitY=0.5;exitDx=0;exitDy=0;entryX=0;entryY=0;entryDx=0;entryDy=0;endArrow=none;endFill=0;" edge="1" parent="1" source="isqemZ8E7xfHTn4rIfgv-69" target="isqemZ8E7xfHTn4rIfgv-48">
          <mxGeometry relative="1" as="geometry" />
        </mxCell>
        <mxCell id="isqemZ8E7xfHTn4rIfgv-69" value="&lt;span style=&quot;font-size: 24px&quot;&gt;MakerSubDistrict&lt;/span&gt;" style="rhombus;whiteSpace=wrap;html=1;" vertex="1" parent="1">
          <mxGeometry x="1060" y="590" width="270" height="80" as="geometry" />
        </mxCell>
        <mxCell id="isqemZ8E7xfHTn4rIfgv-73" value="&lt;font style=&quot;font-size: 24px&quot;&gt;1&lt;/font&gt;" style="edgeLabel;html=1;align=center;verticalAlign=middle;resizable=0;points=[];" vertex="1" connectable="0" parent="1">
          <mxGeometry x="889.998552195716" y="610.0037092933455" as="geometry">
            <mxPoint x="-27.630000000000003" y="22.23" as="offset" />
          </mxGeometry>
        </mxCell>
        <mxCell id="isqemZ8E7xfHTn4rIfgv-74" value="&lt;font style=&quot;font-size: 24px&quot;&gt;N&lt;/font&gt;" style="edgeLabel;html=1;align=center;verticalAlign=middle;resizable=0;points=[];" vertex="1" connectable="0" parent="1">
          <mxGeometry x="139.998552195716" y="490.00370929334554" as="geometry">
            <mxPoint x="1186.37" y="238.23" as="offset" />
          </mxGeometry>
        </mxCell>
        <mxCell id="isqemZ8E7xfHTn4rIfgv-77" style="edgeStyle=none;rounded=0;orthogonalLoop=1;jettySize=auto;html=1;exitX=1;exitY=0.5;exitDx=0;exitDy=0;entryX=0.25;entryY=0;entryDx=0;entryDy=0;endArrow=none;endFill=0;" edge="1" parent="1" source="isqemZ8E7xfHTn4rIfgv-75" target="isqemZ8E7xfHTn4rIfgv-48">
          <mxGeometry relative="1" as="geometry" />
        </mxCell>
        <mxCell id="isqemZ8E7xfHTn4rIfgv-75" value="&lt;span style=&quot;font-size: 24px&quot;&gt;MakerDistrict&lt;/span&gt;" style="rhombus;whiteSpace=wrap;html=1;" vertex="1" parent="1">
          <mxGeometry x="1080" y="440" width="270" height="80" as="geometry" />
        </mxCell>
        <mxCell id="isqemZ8E7xfHTn4rIfgv-78" value="&lt;font style=&quot;font-size: 24px&quot;&gt;N&lt;/font&gt;" style="edgeLabel;html=1;align=center;verticalAlign=middle;resizable=0;points=[];" vertex="1" connectable="0" parent="1">
          <mxGeometry x="199.998552195716" y="470.00370929334554" as="geometry">
            <mxPoint x="1186.37" y="238.23" as="offset" />
          </mxGeometry>
        </mxCell>
        <mxCell id="isqemZ8E7xfHTn4rIfgv-82" style="edgeStyle=none;rounded=0;orthogonalLoop=1;jettySize=auto;html=1;exitX=1;exitY=0.5;exitDx=0;exitDy=0;entryX=0.5;entryY=0;entryDx=0;entryDy=0;endArrow=none;endFill=0;" edge="1" parent="1" source="isqemZ8E7xfHTn4rIfgv-80" target="isqemZ8E7xfHTn4rIfgv-48">
          <mxGeometry relative="1" as="geometry" />
        </mxCell>
        <mxCell id="isqemZ8E7xfHTn4rIfgv-80" value="&lt;span style=&quot;font-size: 24px&quot;&gt;MakerProvince&lt;/span&gt;" style="rhombus;whiteSpace=wrap;html=1;" vertex="1" parent="1">
          <mxGeometry x="1120" y="280" width="270" height="80" as="geometry" />
        </mxCell>
        <mxCell id="isqemZ8E7xfHTn4rIfgv-83" value="&lt;font style=&quot;font-size: 24px&quot;&gt;N&lt;/font&gt;" style="edgeLabel;html=1;align=center;verticalAlign=middle;resizable=0;points=[];" vertex="1" connectable="0" parent="1">
          <mxGeometry x="242.498552195716" y="415.00370929334554" as="geometry">
            <mxPoint x="1186.37" y="238.23" as="offset" />
          </mxGeometry>
        </mxCell>
        <mxCell id="isqemZ8E7xfHTn4rIfgv-85" value="&lt;font style=&quot;font-size: 24px&quot;&gt;1&lt;/font&gt;" style="edgeLabel;html=1;align=center;verticalAlign=middle;resizable=0;points=[];" vertex="1" connectable="0" parent="1">
          <mxGeometry x="1029.998552195716" y="490.00370929334554" as="geometry">
            <mxPoint x="-27.630000000000003" y="22.23" as="offset" />
          </mxGeometry>
        </mxCell>
        <mxCell id="isqemZ8E7xfHTn4rIfgv-86" value="&lt;font style=&quot;font-size: 24px&quot;&gt;1&lt;/font&gt;" style="edgeLabel;html=1;align=center;verticalAlign=middle;resizable=0;points=[];" vertex="1" connectable="0" parent="1">
          <mxGeometry x="1089.998552195716" y="320.00370929334554" as="geometry">
            <mxPoint x="-27.630000000000003" y="22.23" as="offset" />
          </mxGeometry>
        </mxCell>
        <mxCell id="isqemZ8E7xfHTn4rIfgv-89" style="edgeStyle=none;rounded=0;orthogonalLoop=1;jettySize=auto;html=1;exitX=1;exitY=0.5;exitDx=0;exitDy=0;entryX=0.75;entryY=0;entryDx=0;entryDy=0;endArrow=none;endFill=0;" edge="1" parent="1" source="isqemZ8E7xfHTn4rIfgv-87" target="isqemZ8E7xfHTn4rIfgv-48">
          <mxGeometry relative="1" as="geometry" />
        </mxCell>
        <mxCell id="isqemZ8E7xfHTn4rIfgv-87" value="&lt;span style=&quot;font-size: 24px&quot;&gt;MakerRegion&lt;/span&gt;" style="rhombus;whiteSpace=wrap;html=1;" vertex="1" parent="1">
          <mxGeometry x="1180" y="150" width="270" height="80" as="geometry" />
        </mxCell>
        <mxCell id="isqemZ8E7xfHTn4rIfgv-90" value="&lt;font style=&quot;font-size: 24px&quot;&gt;N&lt;/font&gt;" style="edgeLabel;html=1;align=center;verticalAlign=middle;resizable=0;points=[];" vertex="1" connectable="0" parent="1">
          <mxGeometry x="299.998552195716" y="390.00370929334554" as="geometry">
            <mxPoint x="1186.37" y="238.23" as="offset" />
          </mxGeometry>
        </mxCell>
        <mxCell id="isqemZ8E7xfHTn4rIfgv-91" value="&lt;font style=&quot;font-size: 24px&quot;&gt;1&lt;/font&gt;" style="edgeLabel;html=1;align=center;verticalAlign=middle;resizable=0;points=[];" vertex="1" connectable="0" parent="1">
          <mxGeometry x="1124.998552195716" y="180.00370929334554" as="geometry">
            <mxPoint x="-27.630000000000003" y="22.23" as="offset" />
          </mxGeometry>
        </mxCell>
        <mxCell id="isqemZ8E7xfHTn4rIfgv-92" value="&lt;span style=&quot;font-size: 24px&quot;&gt;School&lt;/span&gt;" style="rounded=0;whiteSpace=wrap;html=1;" vertex="1" parent="1">
          <mxGeometry x="1790" y="250" width="200" height="60" as="geometry" />
        </mxCell>
        <mxCell id="isqemZ8E7xfHTn4rIfgv-97" style="edgeStyle=none;rounded=0;orthogonalLoop=1;jettySize=auto;html=1;exitX=1;exitY=0;exitDx=0;exitDy=0;entryX=0.25;entryY=1;entryDx=0;entryDy=0;endArrow=none;endFill=0;" edge="1" parent="1" source="isqemZ8E7xfHTn4rIfgv-95" target="isqemZ8E7xfHTn4rIfgv-92">
          <mxGeometry relative="1" as="geometry" />
        </mxCell>
        <mxCell id="isqemZ8E7xfHTn4rIfgv-95" value="&lt;span style=&quot;font-size: 24px&quot;&gt;MakerSchool&lt;/span&gt;" style="rhombus;whiteSpace=wrap;html=1;" vertex="1" parent="1">
          <mxGeometry x="1570" y="540" width="270" height="80" as="geometry" />
        </mxCell>
        <mxCell id="isqemZ8E7xfHTn4rIfgv-98" value="&lt;font style=&quot;font-size: 24px&quot;&gt;1&lt;/font&gt;" style="edgeLabel;html=1;align=center;verticalAlign=middle;resizable=0;points=[];" vertex="1" connectable="0" parent="1">
          <mxGeometry x="1829.998552195716" y="370.00370929334554" as="geometry">
            <mxPoint x="-27.630000000000003" y="22.23" as="offset" />
          </mxGeometry>
        </mxCell>
        <mxCell id="isqemZ8E7xfHTn4rIfgv-99" value="&lt;font style=&quot;font-size: 24px&quot;&gt;N&lt;/font&gt;" style="edgeLabel;html=1;align=center;verticalAlign=middle;resizable=0;points=[];" vertex="1" connectable="0" parent="1">
          <mxGeometry x="449.998552195716" y="460.00370929334554" as="geometry">
            <mxPoint x="1186.37" y="238.23" as="offset" />
          </mxGeometry>
        </mxCell>
        <mxCell id="isqemZ8E7xfHTn4rIfgv-100" value="&lt;span style=&quot;font-size: 24px&quot;&gt;GraduateLevel&lt;/span&gt;" style="rounded=0;whiteSpace=wrap;html=1;" vertex="1" parent="1">
          <mxGeometry x="2015" y="380" width="200" height="60" as="geometry" />
        </mxCell>
        <mxCell id="isqemZ8E7xfHTn4rIfgv-104" style="edgeStyle=none;rounded=0;orthogonalLoop=1;jettySize=auto;html=1;exitX=1;exitY=0;exitDx=0;exitDy=0;entryX=0.5;entryY=1;entryDx=0;entryDy=0;endArrow=none;endFill=0;" edge="1" parent="1" source="isqemZ8E7xfHTn4rIfgv-102" target="isqemZ8E7xfHTn4rIfgv-100">
          <mxGeometry relative="1" as="geometry" />
        </mxCell>
        <mxCell id="isqemZ8E7xfHTn4rIfgv-102" value="&lt;span style=&quot;font-size: 24px&quot;&gt;MakerGraduate&lt;/span&gt;" style="rhombus;whiteSpace=wrap;html=1;" vertex="1" parent="1">
          <mxGeometry x="1810" y="590" width="270" height="80" as="geometry" />
        </mxCell>
        <mxCell id="isqemZ8E7xfHTn4rIfgv-105" value="&lt;font style=&quot;font-size: 24px&quot;&gt;1&lt;/font&gt;" style="edgeLabel;html=1;align=center;verticalAlign=middle;resizable=0;points=[];" vertex="1" connectable="0" parent="1">
          <mxGeometry x="2089.998552195716" y="510.00370929334554" as="geometry">
            <mxPoint x="-27.630000000000003" y="22.23" as="offset" />
          </mxGeometry>
        </mxCell>
        <mxCell id="isqemZ8E7xfHTn4rIfgv-106" value="&lt;font style=&quot;font-size: 24px&quot;&gt;N&lt;/font&gt;" style="edgeLabel;html=1;align=center;verticalAlign=middle;resizable=0;points=[];" vertex="1" connectable="0" parent="1">
          <mxGeometry x="619.998552195716" y="420.00370929334554" as="geometry">
            <mxPoint x="1128.37" y="286.23" as="offset" />
          </mxGeometry>
        </mxCell>
        <mxCell id="isqemZ8E7xfHTn4rIfgv-111" style="edgeStyle=none;rounded=0;orthogonalLoop=1;jettySize=auto;html=1;exitX=1;exitY=0;exitDx=0;exitDy=0;entryX=0.25;entryY=1;entryDx=0;entryDy=0;endArrow=none;endFill=0;" edge="1" parent="1" source="isqemZ8E7xfHTn4rIfgv-108" target="isqemZ8E7xfHTn4rIfgv-110">
          <mxGeometry relative="1" as="geometry" />
        </mxCell>
        <mxCell id="isqemZ8E7xfHTn4rIfgv-108" value="&lt;span style=&quot;font-size: 24px&quot;&gt;MakerCareer&lt;/span&gt;" style="rhombus;whiteSpace=wrap;html=1;" vertex="1" parent="1">
          <mxGeometry x="1945" y="700" width="270" height="80" as="geometry" />
        </mxCell>
        <mxCell id="isqemZ8E7xfHTn4rIfgv-117" style="edgeStyle=none;rounded=0;orthogonalLoop=1;jettySize=auto;html=1;exitX=1;exitY=0.25;exitDx=0;exitDy=0;entryX=0;entryY=1;entryDx=0;entryDy=0;endArrow=none;endFill=0;" edge="1" parent="1" source="isqemZ8E7xfHTn4rIfgv-110" target="isqemZ8E7xfHTn4rIfgv-116">
          <mxGeometry relative="1" as="geometry" />
        </mxCell>
        <mxCell id="isqemZ8E7xfHTn4rIfgv-110" value="&lt;span style=&quot;font-size: 24px&quot;&gt;CareerType&lt;/span&gt;" style="rounded=0;whiteSpace=wrap;html=1;" vertex="1" parent="1">
          <mxGeometry x="2250" y="460" width="200" height="60" as="geometry" />
        </mxCell>
        <mxCell id="isqemZ8E7xfHTn4rIfgv-113" style="edgeStyle=none;rounded=0;orthogonalLoop=1;jettySize=auto;html=1;exitX=1;exitY=1;exitDx=0;exitDy=0;entryX=0.25;entryY=0;entryDx=0;entryDy=0;endArrow=none;endFill=0;" edge="1" parent="1" source="isqemZ8E7xfHTn4rIfgv-112" target="isqemZ8E7xfHTn4rIfgv-92">
          <mxGeometry relative="1" as="geometry" />
        </mxCell>
        <mxCell id="isqemZ8E7xfHTn4rIfgv-112" value="&lt;font style=&quot;font-size: 24px&quot;&gt;&lt;u&gt;id&lt;/u&gt;&lt;/font&gt;" style="ellipse;whiteSpace=wrap;html=1;" vertex="1" parent="1">
          <mxGeometry x="1720" y="100" width="90" height="50" as="geometry" />
        </mxCell>
        <mxCell id="isqemZ8E7xfHTn4rIfgv-115" style="edgeStyle=none;rounded=0;orthogonalLoop=1;jettySize=auto;html=1;exitX=0;exitY=1;exitDx=0;exitDy=0;entryX=0.75;entryY=0;entryDx=0;entryDy=0;endArrow=none;endFill=0;" edge="1" parent="1" source="isqemZ8E7xfHTn4rIfgv-114" target="isqemZ8E7xfHTn4rIfgv-100">
          <mxGeometry relative="1" as="geometry" />
        </mxCell>
        <mxCell id="isqemZ8E7xfHTn4rIfgv-114" value="&lt;font style=&quot;font-size: 24px&quot;&gt;&lt;u&gt;id&lt;/u&gt;&lt;/font&gt;" style="ellipse;whiteSpace=wrap;html=1;" vertex="1" parent="1">
          <mxGeometry x="2200" y="210" width="90" height="50" as="geometry" />
        </mxCell>
        <mxCell id="isqemZ8E7xfHTn4rIfgv-116" value="&lt;font style=&quot;font-size: 24px&quot;&gt;&lt;u&gt;id&lt;/u&gt;&lt;/font&gt;" style="ellipse;whiteSpace=wrap;html=1;" vertex="1" parent="1">
          <mxGeometry x="2520" y="350" width="90" height="50" as="geometry" />
        </mxCell>
        <mxCell id="isqemZ8E7xfHTn4rIfgv-119" style="edgeStyle=none;rounded=0;orthogonalLoop=1;jettySize=auto;html=1;exitX=0.5;exitY=1;exitDx=0;exitDy=0;entryX=0.5;entryY=0;entryDx=0;entryDy=0;endArrow=none;endFill=0;" edge="1" parent="1" source="isqemZ8E7xfHTn4rIfgv-118" target="isqemZ8E7xfHTn4rIfgv-92">
          <mxGeometry relative="1" as="geometry" />
        </mxCell>
        <mxCell id="isqemZ8E7xfHTn4rIfgv-118" value="&lt;span style=&quot;font-size: 24px&quot;&gt;school&lt;/span&gt;" style="ellipse;whiteSpace=wrap;html=1;" vertex="1" parent="1">
          <mxGeometry x="1850" y="110" width="150" height="50" as="geometry" />
        </mxCell>
        <mxCell id="isqemZ8E7xfHTn4rIfgv-121" style="edgeStyle=none;rounded=0;orthogonalLoop=1;jettySize=auto;html=1;exitX=0.5;exitY=1;exitDx=0;exitDy=0;entryX=0.5;entryY=0;entryDx=0;entryDy=0;endArrow=none;endFill=0;" edge="1" parent="1" source="isqemZ8E7xfHTn4rIfgv-120" target="isqemZ8E7xfHTn4rIfgv-100">
          <mxGeometry relative="1" as="geometry" />
        </mxCell>
        <mxCell id="isqemZ8E7xfHTn4rIfgv-120" value="&lt;span style=&quot;font-size: 24px&quot;&gt;graduate&lt;/span&gt;" style="ellipse;whiteSpace=wrap;html=1;" vertex="1" parent="1">
          <mxGeometry x="2020" y="220" width="150" height="50" as="geometry" />
        </mxCell>
        <mxCell id="isqemZ8E7xfHTn4rIfgv-123" style="edgeStyle=none;rounded=0;orthogonalLoop=1;jettySize=auto;html=1;exitX=0.5;exitY=1;exitDx=0;exitDy=0;entryX=0.5;entryY=0;entryDx=0;entryDy=0;endArrow=none;endFill=0;" edge="1" parent="1" source="isqemZ8E7xfHTn4rIfgv-122" target="isqemZ8E7xfHTn4rIfgv-110">
          <mxGeometry relative="1" as="geometry" />
        </mxCell>
        <mxCell id="isqemZ8E7xfHTn4rIfgv-122" value="&lt;span style=&quot;font-size: 24px&quot;&gt;career_type&lt;/span&gt;" style="ellipse;whiteSpace=wrap;html=1;" vertex="1" parent="1">
          <mxGeometry x="2300" y="320" width="150" height="50" as="geometry" />
        </mxCell>
        <mxCell id="isqemZ8E7xfHTn4rIfgv-125" value="&lt;font style=&quot;font-size: 18px&quot;&gt;M&lt;/font&gt;" style="edgeLabel;html=1;align=center;verticalAlign=middle;resizable=0;points=[];" vertex="1" connectable="0" parent="1">
          <mxGeometry x="970" y="970" as="geometry">
            <mxPoint x="372" y="-38" as="offset" />
          </mxGeometry>
        </mxCell>
      </root>
    </mxGraphModel>
  </diagram>
</mxfile>
